<svg width="912" height="664" style="background: rgb(255, 255, 255); fill: rgb(0, 0, 0); color: rgb(0, 0, 0);"><rect height="362.5714285714286" width="133" x="50" y="251.4285714285714" fill="rgba(255,0,0,1)"></rect><rect height="378.6857142857143" width="133" x="185" y="235.3142857142857" fill="rgba(255,0,0,1)"></rect><rect height="418.9714285714286" width="133" x="320" y="195.0285714285714" fill="rgba(255,0,0,1)"></rect><rect height="564" width="133" x="455" y="50" fill="rgba(255,0,0,1)"></rect><rect height="475.37142857142857" width="133" x="590" y="138.62857142857143" fill="rgba(255,0,0,1)"></rect><rect height="378.6857142857143" width="133" x="725" y="235.3142857142857" fill="rgba(255,0,0,1)"></rect><g transform="translate(50,614)" fill="none" font-size="10" font-family="sans-serif" text-anchor="middle"><path class="domain" stroke="currentColor" d="M0.5,6V0.5H810.5V6"></path><g class="tick" opacity="1" transform="translate(67.5,0)"><line stroke="currentColor" y2="6"></line><text fill="currentColor" y="9" dy="0.71em">2011</text></g><g class="tick" opacity="1" transform="translate(202.5,0)"><line stroke="currentColor" y2="6"></line><text fill="currentColor" y="9" dy="0.71em">2012</text></g><g class="tick" opacity="1" transform="translate(337.5,0)"><line stroke="currentColor" y2="6"></line><text fill="currentColor" y="9" dy="0.71em">2013</text></g><g class="tick" opacity="1" transform="translate(472.5,0)"><line stroke="currentColor" y2="6"></line><text fill="currentColor" y="9" dy="0.71em">2014</text></g><g class="tick" opacity="1" transform="translate(607.5,0)"><line stroke="currentColor" y2="6"></line><text fill="currentColor" y="9" dy="0.71em">2015</text></g><g class="tick" opacity="1" transform="translate(742.5,0)"><line stroke="currentColor" y2="6"></line><text fill="currentColor" y="9" dy="0.71em">2016</text></g></g><text transform="translate(406 ,664)" dx="1em" style="text-anchor: middle; font-family: Tahoma, Geneva, sans-serif; font-size: 12pt;">Year</text><g transform="translate(50, 50)" fill="none" font-size="10" font-family="sans-serif" text-anchor="end"><path class="domain" stroke="currentColor" d="M-6,564.5H0.5V0.5H-6"></path><g class="tick" opacity="1" transform="translate(0,564.5)"><line stroke="currentColor" x2="-6"></line><text fill="currentColor" x="-9" dy="0.32em">0.00</text></g><g class="tick" opacity="1" transform="translate(0,524.2142857142857)"><line stroke="currentColor" x2="-6"></line><text fill="currentColor" x="-9" dy="0.32em">0.05</text></g><g class="tick" opacity="1" transform="translate(0,483.92857142857144)"><line stroke="currentColor" x2="-6"></line><text fill="currentColor" x="-9" dy="0.32em">0.10</text></g><g class="tick" opacity="1" transform="translate(0,443.6428571428571)"><line stroke="currentColor" x2="-6"></line><text fill="currentColor" x="-9" dy="0.32em">0.15</text></g><g class="tick" opacity="1" transform="translate(0,403.35714285714283)"><line stroke="currentColor" x2="-6"></line><text fill="currentColor" x="-9" dy="0.32em">0.20</text></g><g class="tick" opacity="1" transform="translate(0,363.07142857142856)"><line stroke="currentColor" x2="-6"></line><text fill="currentColor" x="-9" dy="0.32em">0.25</text></g><g class="tick" opacity="1" transform="translate(0,322.7857142857143)"><line stroke="currentColor" x2="-6"></line><text fill="currentColor" x="-9" dy="0.32em">0.30</text></g><g class="tick" opacity="1" transform="translate(0,282.5)"><line stroke="currentColor" x2="-6"></line><text fill="currentColor" x="-9" dy="0.32em">0.35</text></g><g class="tick" opacity="1" transform="translate(0,242.21428571428567)"><line stroke="currentColor" x2="-6"></line><text fill="currentColor" x="-9" dy="0.32em">0.40</text></g><g class="tick" opacity="1" transform="translate(0,201.9285714285714)"><line stroke="currentColor" x2="-6"></line><text fill="currentColor" x="-9" dy="0.32em">0.45</text></g><g class="tick" opacity="1" transform="translate(0,161.6428571428571)"><line stroke="currentColor" x2="-6"></line><text fill="currentColor" x="-9" dy="0.32em">0.50</text></g><g class="tick" opacity="1" transform="translate(0,121.35714285714278)"><line stroke="currentColor" x2="-6"></line><text fill="currentColor" x="-9" dy="0.32em">0.55</text></g><g class="tick" opacity="1" transform="translate(0,81.07142857142856)"><line stroke="currentColor" x2="-6"></line><text fill="currentColor" x="-9" dy="0.32em">0.60</text></g><g class="tick" opacity="1" transform="translate(0,40.78571428571422)"><line stroke="currentColor" x2="-6"></line><text fill="currentColor" x="-9" dy="0.32em">0.65</text></g><g class="tick" opacity="1" transform="translate(0,0.5)"><line stroke="currentColor" x2="-6"></line><text fill="currentColor" x="-9" dy="0.32em">0.70</text></g></g><text transform="translate(0 ,332) rotate(-90)" dy="1em" style="text-anchor: middle; font-family: Tahoma, Geneva, sans-serif; font-size: 12pt;">Value</text><text x="406" y="25" text-anchor="middle" dx="1em" style="font-size: 16pt; font-family: Tahoma, Geneva, sans-serif;">Chart Title</text></svg>